<svg xmlns="http://www.w3.org/2000/svg" version="1.1" viewBox="0 0 110 110" fill="rgb(242, 77, 68)">
 <path d="m83 50c0-0.80078-0.39844-1.3984-1.1016-1.8008l-62-31.602c-0.69922-0.30078-1.5-0.30078-2.1016 0.10156-0.60156 0.39844-0.89844 1.1992-0.80078 1.8984l3.5 25.699c0.10156 0.80078 0.69922 1.5 1.3984 1.6992l16.602 5.1016-16.598 6.9023c-0.69922 0.19922-1.1992 0.89844-1.3008 1.6016l-3.5977 21.797c-0.10156 0.69922 0.19922 1.5 0.80078 1.8984 0.30078 0.19922 0.80078 0.39844 1.1992 0.39844 0.30078 0 0.60156-0.10156 0.89844-0.19922l62-31.602c0.70312-0.49609 1.1016-1.0938 1.1016-1.8945z"/></svg>